<?xml version="1.0" encoding="UTF-8"?>
<svg id="Capa_1" data-name="Capa 1" xmlns="http://www.w3.org/2000/svg" viewBox="0 0 841.89 311.42">
  <defs>
    <style>
      .cls-1 {
        fill: #d0103e;
      }

      .cls-2 {
        fill: #271637;
      }
    </style>
  </defs>
  <g>
    <path class="cls-1" d="M324.46,118.68c-3.6-7.82-6.94-15.77-10-23.9-2.43-6.47-5.13-15.1-13.52-16.36-4.31-.64-9.86,2.66-12,6.02-3.01,4.73-4.21,8.01-8.92,9.67-5.58,1.09-12.12.89-17.62,3.46-8.48,3.96-13.02,11.3-21.55,13.3-11.17,2.61-21.04-8.19-32.64-7.08-8.68.83-51.34,10.16-65.81,20.69-8.06,6.71,2.28,18.15,9.54,10.82,11.34-11.67,52.99-30.41,64.37-27.02,5.21,1.55,10.31,4.18,16.07,5.93,12.75,3.87,22.07-6.97,32.39-10.67,3.43-1.23,7.61-1.68,11.37-1.35,2.93.26,7.29.22,10.37-1.19,4.31-1.97,8.97-6.76,11.12-9.69,1.02-1.12,1.94-1.9,3.79-1.57,9.8,1.72,13.29,21.11,19.6,30.87,6.27,9.71,12.96,19.69,22.65,26.18.59.41,1.22-.54.63-.94-9.11-6.8-14.92-17.02-19.82-27.17Z"/>
    <path class="cls-1" d="M749.33,145c-6.75-15.18-9.83-22.78-18.72-32.62-2.54-2.82-3.87-6.89-7.95-8.64-4.74-2.03-8.23,1.53-9.79,1.54-2.52.02-10.71-6.62-14.2-6.42-10.86,2.52-3.94,21.23-24.32,18.79-34.75-6.72-24.73-17.4-57.42,6.04-3.1,1.07-10.18-1.76-14.03,1.08-7.4,4.97-8.76,13.44-18.86,16.84-26.74,9.02-35.56-8.21-56.46-22.12-11.11-8.03-26.35-.03-33.3,1.32-4.96-.36-8.11-9.47-12.5-14.06-2.23-2.33-5.19-5.01-8.7-5.68-5.52-1.61-11.78,2.17-16.68,2.35-6.35-.35-13.07-3.67-19.8-3.37-8.07.64-15.15,5.26-23.41,3.21-3.34-.47-4.82-2.49-6.82-5.69-2.06-3.3-7.26-9.7-12.79-9.5-14.96,1.02-24.25,45.19-27.85,57.78-.5,1.62,2.11,2.47,2.69.94,2.27-4.8,4.52-9.61,6.85-14.37,4.54-9.27,9.4-18.82,14.85-27.43,1.53-2.42,2.97-5.4,4.84-5.47,4.26-.16,7.39,7.34,12.82,8.99,5.79,1.75,11.75-.24,17.47-.99,2.08-.27,6.57-.98,9.1-.9,10.07.31,16.55,6.83,26.41,5.18,3.64-.61,7.42-4.35,11.39-.6,6.14,5.8,8.88,13.5,15.83,18.44,17.78,7.87,19.35-13.22,49.26,5.54,30.73,16.31,39.62,15.58,69.09-3.14,3.61-1.77,7.47,1.56,12.73.54,11.9-4.19,21.05-14.62,34.4-12.27,20.11,3.89,35.43,13.15,45.31-11.6.32-.6,1.09-.78,1.64-.38,4.62,3.39,10.27,8.07,15.82,5.5,1.45-.67,2.78-2.3,4.59-2.12,12.76,1.31,14.42,34.82,16.1,38.84,3.73,8.9,16.29,3.18,12.41-5.56Z"/>
  </g>
  <g>
    <path class="cls-2" d="M427.9,151.88h.05c.07-.02.24-.06,6.87-2.69.39-.21.48-.52.48-.74,0-.31-.13-.62-.37-.93-.37-.47-.84-.62-1.24-.38l-5.96,3.78c-.18.15-.27.33-.27.52,0,.28.17.45.45.45Z"/>
    <path class="cls-2" d="M287,181.26h.01c.49-.02.88-.19,1.15-.48.26-.29.4-.61.4-.95,0-.28-.11-.52-.32-.74-.21-.21-.52-.33-.94-.36-.32,0-.66.19-1.01.56-.34.37-.51.73-.51,1.1,0,.4.21.87,1.23.87Z"/>
    <path class="cls-2" d="M301.25,180.64h.05c.08-.02.32-.08,9.27-3.63.4-.21.61-.54.61-.94s-.17-.81-.49-1.21c-.33-.42-.7-.64-1.1-.64-.17,0-.33.04-.47.13l-8.07,5.11c-.22.19-.33.41-.33.65,0,.34.2.54.54.54Z"/>
    <path class="cls-2" d="M343.85,185.83c-.26,0-.53.14-.85.43-1.43,1.58-2.97,2.94-4.58,4.05-1.59,1.1-3.06,1.65-4.39,1.65-.7,0-1.18-.13-1.42-.39-.25-.27-.37-.63-.37-1.1,0-.7.16-1.53.48-2.5.38-1.3.57-2.25.57-2.92,0-.71-.23-1.31-.68-1.77-.46-.47-1.28-.7-2.52-.7-2.03,0-4.64,1.14-7.77,3.39-2,1.43-4.15,3.2-6.39,5.25l3.3-7.75c.12-.29.18-.56.18-.8,0-.4-.12-.74-.37-1-.25-.26-.55-.4-.89-.4-.79,0-1.44.58-1.93,1.74l-.67,1.55c-.12,0-.24,0-.31,0h-.85c-2.63,0-4.91-.14-6.78-.43,0-.58-.29-1.1-.85-1.54-.56-.44-1.47-.65-2.77-.65-1.82,0-3.45.39-4.84,1.16-1.39.77-2.5,1.74-3.29,2.89-.11.16-.2.33-.3.49-.53.55-1.33,1.25-2.42,2.11-1.18.93-2.46,1.8-3.81,2.58-1.33.77-2.45,1.15-3.32,1.15s-1.23-.32-1.23-1.04c0-.52.19-1.28.56-2.26.38-1,.79-1.99,1.23-2.95l.75-1.87c.08-.18.12-.37.12-.58,0-.37-.11-.71-.32-1.01-.22-.32-.55-.48-.94-.48-.81,0-1.46.56-1.93,1.67l-.33.72c-.29.61-.59,1.28-.89,1.97-.06.06-.12.11-.19.17-2.16,2.18-4.64,3.89-7.35,5.08-1.52.66-3.15,1-4.84,1-1.4,0-2.4-.31-2.98-.92-.59-.62-.88-1.34-.88-2.19s.26-1.8.78-2.74c.52-.94,1.23-1.74,2.1-2.38.87-.63,1.84-.95,2.88-.95,1.1,0,1.1.43,1.1.58,0,.3-.09.58-.26.83-.22.32-.33.6-.33.84,0,.28.1.52.31.72.21.2.48.31.82.31.41,0,.86-.24,1.39-.73.52-.49.79-1.1.79-1.81,0-.61-.3-1.17-.9-1.66-.59-.49-1.55-.72-2.92-.72-1.73,0-3.28.38-4.6,1.13-1.32.75-2.35,1.69-3.08,2.81-.12.19-.22.37-.32.56-1.41,1.55-2.92,2.88-4.48,3.94-1.57,1.07-3.03,1.61-4.36,1.61-1.18,0-1.72-.69-1.72-2.18,0-.85.24-2.08.71-3.64.27-.82.41-1.4.41-1.77,0-.67-.4-.74-.57-.74-.53,0-.93.1-1.22.32-.27.2-.56.51-.88.91-.86,1.06-2.06,2.3-3.56,3.69-2.64,2.42-4.89,3.65-6.68,3.65-1.09,0-1.6-.49-1.62-1.53,0-.72.32-1.62.95-2.68.64-1.06,1.53-2.02,2.65-2.84,1.11-.81,2.38-1.22,3.8-1.22.54,0,1.05.07,1.49.21,1.28.57,2.04.58,2.44.11.19-.21.28-.45.28-.7,0-.55-.49-.94-1.46-1.17-.87-.21-1.83-.32-2.86-.32-1.91.04-3.67.52-5.22,1.42-1.39.81-2.53,1.78-3.43,2.89-.48.45-1.18,1.05-2.15,1.84-3.01,2.5-5.32,3.76-6.86,3.76-.42,0-.97-.15-.97-1.41.22-2.2,1.61-6.47,4.15-12.69,2.55-6.23,5.3-12.61,8.19-18.96,2.94-6.46,4.96-10.84,6.18-13.39.12-.21.25-.58.43-1.16.17-.56.25-1.09.25-1.57,0-1.01-.54-1.16-.87-1.16-.87,0-1.67.84-2.46,2.55-1.27,2.63-3.6,7.7-6.93,15.07-3.34,7.41-6.37,14.5-9,21.08-1.38,3.39-3.26,6.25-5.59,8.51-2.31,2.23-4.52,3.37-6.55,3.37-1.09,0-1.6-.49-1.62-1.53,0-.72.32-1.62.95-2.68.64-1.06,1.53-2.02,2.65-2.84,1.11-.81,2.38-1.22,3.8-1.22.54,0,1.05.07,1.49.21,1.22.57,1.99.57,2.42.14.2-.21.31-.45.31-.73,0-.59-.51-1-1.53-1.21-.92-.19-1.87-.28-2.82-.28-1.91.04-3.66.52-5.2,1.42-1.31.77-2.4,1.69-3.28,2.73-.03.02-.05.03-.07.05-1.43,1.58-2.97,2.94-4.58,4.05-1.59,1.1-3.06,1.65-4.39,1.65-.7,0-1.18-.13-1.42-.39-.25-.27-.37-.63-.37-1.1,0-.7.16-1.53.48-2.5.38-1.3.57-2.25.57-2.92,0-.71-.23-1.31-.68-1.77-.46-.47-1.28-.7-2.52-.7-2.03,0-4.64,1.14-7.77,3.39-2,1.43-4.15,3.2-6.39,5.25l3.3-7.75c.12-.29.18-.56.18-.8,0-.4-.12-.74-.37-1-.25-.26-.55-.4-.89-.4-.79,0-1.44.58-1.93,1.74l-1.49,3.43-.27.24c-.58.54-1.36,1.21-2.32,2.01-.97.81-2.02,1.56-3.11,2.23-1.07.65-2.03.99-2.86.99-.63,0-1.46-.2-1.46-1.95,0-.96.18-2,.55-3.09.37-1.1.68-1.89.93-2.35.13-.21.2-.44.2-.67,0-.25-.19-.5-.57-.75-.35-.23-.85-.35-1.48-.35-.43,0-.79.15-1.09.44-.26.26-.59.68-.99,1.26-.65.93-1.52,2-2.59,3.2-1.07,1.19-2.26,2.26-3.53,3.17-1.25.9-2.48,1.35-3.65,1.35-.64,0-1.1-.12-1.37-.37-.26-.24-.39-.59-.39-1.06,0-.91.22-1.86.64-2.82.44-.99.88-1.87,1.3-2.62.7-1.16.78-1.58.78-1.78,0-.33-.14-.61-.4-.83-.26-.22-.59-.33-.99-.33-.73,0-1.35.4-1.82,1.18-.92,1.52-1.66,2.99-2.18,4.37-.02.06-.03.12-.05.18-.41-.02-.92-.04-1.59-.04l-8.22-.03c-6.53,0-11.88.05-15.89.14,4.78-10.75,9.83-21.48,15.03-31.91,1.74-.11,5.12-.26,10.05-.43,5.06-.18,10.38-.27,15.8-.27,14.08,0,18.18.87,19.08,1.63.02.84.56.97.89.97.27,0,.53-.12.76-.37.23-.24.35-.6.35-1.06,0-1.37-2.35-2.26-7.41-2.8-3.81-.4-8.93-.61-15.2-.61-4.78,0-9.44.09-13.84.25-4.22.16-7.3.3-9.38.43.04-.14.06-.28.06-.42,0-.34-.11-.64-.32-.89-.22-.25-.52-.4-.94-.44-.17,0-.42.06-.62.34-.13.18-.31.5-.54.99l-.29.57c-7.94.71-12.23,1.11-13.89,1.28-8.43.8-15.58,1.73-21.25,2.74-7.09,1.28-12.08,2.84-14.84,4.64-1.54.99-2.33,2.14-2.33,3.43,0,1.19.48,2.47,1.43,3.79.93,1.3,2.18,2.7,3.72,4.17,1.54,1.46,3.27,3.02,5.12,4.63,1.65,1.44,3.34,2.96,5.03,4.52,1.7,1.57,3.34,3.23,4.9,4.93,1.55,1.71,2.97,3.51,4.2,5.37,1.23,1.85,2.22,3.81,2.95,5.81.72,1.99,1.09,4.1,1.09,6.26l-.02,1.02-.56,1.32c-.97,2.24-2.01,4.8-3.08,7.61-1.09,2.85-1.69,5.09-1.81,6.68,0,.92.47,1.4,1.37,1.4,1.07,0,2.05-1.42,3.01-4.34.87-2.61,1.63-5.82,2.25-9.49,2.75-6.76,5.65-13.59,8.6-20.33,4.91-.13,13.03-.21,24.8-.26h.29c.33,0,.62-.02.89-.04-.08.42-.12.83-.12,1.23,0,1,.33,1.8.99,2.36.66.56,1.84.84,3.62.84,3.42,0,6.83-2.14,10.16-6.36-.24.83-.36,1.63-.36,2.37,0,2.36,1.29,3.56,3.82,3.56,2.08,0,4.48-1.19,7.13-3.53.23-.21.43-.38.63-.57-.71,1.66-1.12,2.66-1.24,3.04-.11.39-.18.79-.21,1.21,0,.4.12.75.36,1.04.25.3.59.45,1,.45.25,0,.53-.03.84-.09.33-.06.56-.14.75-.27,2.22-2.2,4.58-4.31,7.01-6.29,3.6-2.95,6.24-4.45,7.84-4.45.78,0,1.14.32,1.14,1.03,0,.63-.17,1.42-.52,2.37-.43,1.41-.63,2.45-.63,3.18,0,.82.28,1.52.83,2.08.56.57,1.57.85,3.09.85,2.26,0,4.77-1.2,7.47-3.56-.03.22-.07.44-.07.66.02,2.14,1.51,3.23,4.41,3.23h.01c1.89-.11,3.81-.84,5.71-2.17,1.57-1.1,2.91-2.26,4-3.48-.25.98-.38,1.72-.38,2.25,0,2.15,1.22,3.23,3.63,3.23,2.25,0,4.89-1.28,7.84-3.77-.04.24-.07.47-.07.7.02,2.14,1.51,3.23,4.41,3.23h.01c1.96-.11,3.93-.88,5.87-2.27,1.6-1.15,2.96-2.36,4.06-3.6-.16.71-.24,1.39-.24,2.05,0,2.32,1.33,3.49,3.95,3.49,2.28,0,4.79-1.2,7.46-3.57.23-.21.51-.47.78-.72,0,.07-.02.13-.02.2,0,.87.24,1.68.71,2.41.47.73,1.21,1.33,2.21,1.77.99.44,2.28.66,3.86.66,2.08,0,3.98-.37,5.65-1.08,1.66-.72,3.16-1.59,4.44-2.6.47-.37.9-.75,1.33-1.12-.17.64-.28,1.23-.28,1.74,0,.85.3,1.52.88,1.99.58.46,1.57.69,3.04.69,2.36,0,5.13-1.38,8.25-4.09.32-.28.59-.52.84-.75-.02.18-.05.35-.05.53,0,1.2.5,2.24,1.5,3.1.99.85,2.58,1.28,4.75,1.28,1.77,0,3.22-.25,4.29-.76,1.08-.51,1.88-1.16,2.37-1.95.49-.79.74-1.63.74-2.49,0-.92-.24-1.8-.72-2.61,2.21.19,4.31.29,6.25.29h.99l-.4.92c-1.26,2.88-1.95,4.53-2.11,5.05-.11.39-.18.79-.21,1.21,0,.4.12.75.36,1.04.25.3.59.45,1,.45.25,0,.53-.03.84-.09.33-.06.56-.14.75-.27,2.22-2.2,4.58-4.31,7.01-6.29,3.6-2.95,6.24-4.45,7.84-4.45.78,0,1.14.32,1.14,1.03,0,.63-.17,1.42-.52,2.37-.43,1.41-.63,2.45-.63,3.18,0,.82.28,1.52.83,2.08.56.57,1.57.85,3.09.85,2.3,0,4.85-1.23,7.59-3.67.82-.73,1.77-1.63,2.9-2.76.15-.15.22-.31.22-.48s-.07-.33-.22-.43c-.11-.09-.25-.14-.46-.17ZM131.04,188.21c-2.47.06-4.36.14-5.63.23-1.31.09-2.14.23-2.55.41-.59.25-.71.67-.71,1,.02.26.12.45.3.59.17.12.36.19.59.19.39,0,.66-.18.75-.55.13-.05.62-.17,2.59-.28.98-.06,2.34-.11,4.04-.16-2.13,4.76-4.15,9.38-6.01,13.77-.51-3.46-1.73-6.74-3.61-9.75-2.02-3.22-4.44-6.24-7.19-8.98-2.74-2.72-5.48-5.26-8.17-7.54-1.73-1.51-3.31-2.93-4.68-4.22-1.38-1.3-2.5-2.53-3.32-3.65-.8-1.1-1.21-2.12-1.21-3.04,0-1.71,2.75-3.3,8.16-4.72,4.56-1.19,10.62-2.22,18.03-3.07,5.65-.66,11.56-1.21,17.56-1.62l5.84-.39c-1.5,3.05-3.58,7.44-6.2,13.06-2.69,5.77-5.57,12.08-8.56,18.74ZM303.83,186.06c.65.9.98,1.9.98,2.96,0,.49-.11.97-.32,1.44-.21.45-.59.82-1.12,1.12-.55.3-1.32.47-2.28.51h-.19c-1.16,0-2-.26-2.49-.77-.5-.52-.74-1.14-.74-1.9,0-.81.27-1.68.81-2.6.54-.92,1.29-1.7,2.23-2.33.93-.62,2.01-.93,3.18-.93.88,0,.99.26,1,.39-.35.06-.66.19-.91.37-.33.23-.5.54-.53.93,0,.23.13.5.4.81Z"/>
    <path class="cls-2" d="M560.65,185.66c-.21,0-.48.04-.82.13h-.08c-4.21.91-7.92,1.92-11.02,3l-1.04-.61c-2.58-1.44-2.91-1.81-2.94-1.85,0-.31.47-.64,1.32-.95.96-.35,1.99-.63,3.05-.85,1.07-.21,1.76-.32,2.07-.32.19,0,.34,0,.46.02.49.45,1.14.45,1.62.02.24-.21.37-.49.4-.85,0-1.03-.83-1.56-2.48-1.56-.56,0-1.31.08-2.3.25-.96.16-1.95.42-2.96.76-1,.35-1.87.79-2.57,1.31-.74.56-1.12,1.24-1.12,2.03,0,.1.05.19.06.29-.85.84-1.79,1.68-2.87,2.49-1.23.93-2.62,1.72-4.15,2.35-1.52.63-3.22.95-5.04.95-.63,0-1.29-.11-1.95-.32-.65-.21-1.19-.57-1.63-1.07-.43-.5-.65-1.19-.67-2.05,0-.1.03-.33.19-.8.11-.34.23-.62.37-.85,1.13.08,2.46-.04,3.86-.37,1.12-.27,2.1-.64,2.9-1.11.85-.5,1.29-1.1,1.29-1.79,0-.49-.25-.9-.76-1.21-.48-.3-1.22-.44-2.28-.44-1.62,0-3.1.34-4.38,1.01-1.28.67-2.3,1.51-3.04,2.51-.18.24-.33.48-.47.72-.48.44-1.14,1.01-1.98,1.7-1.11.92-2.33,1.78-3.62,2.58-1.26.77-2.36,1.17-3.25,1.17-.42,0-.97-.15-.97-1.41.22-2.22,1.65-6.56,4.25-12.9,2.62-6.38,5.41-12.83,8.29-19.16,2.94-6.49,4.9-10.74,5.98-12.98.12-.21.26-.59.44-1.15.18-.57.27-1.1.27-1.58,0-1.01-.56-1.16-.9-1.16-.87,0-1.67.84-2.45,2.55-1.19,2.47-3.29,7.02-6.24,13.51-2.97,6.55-5.82,13.12-8.45,19.53-1.58,3.84-2.72,6.93-3.45,9.28-.85.85-1.8,1.69-2.87,2.49-1.23.93-2.62,1.72-4.15,2.35-1.52.63-3.22.95-5.04.95-.63,0-1.29-.11-1.95-.32-.65-.21-1.19-.57-1.63-1.07-.43-.5-.65-1.19-.67-2.05,0-.1.03-.33.19-.8.11-.34.23-.62.37-.85,1.13.08,2.46-.04,3.86-.37,1.12-.27,2.1-.64,2.9-1.11.85-.5,1.29-1.1,1.29-1.79,0-.49-.25-.9-.76-1.21-.48-.3-1.22-.44-2.28-.44-1.62,0-3.1.34-4.38,1.01-1.28.67-2.31,1.51-3.04,2.51-.18.25-.35.5-.49.75-3.93,3.21-7.64,6.31-11.05,9.24.82-2.09,1.65-4.18,2.48-6.23.33-.85.68-1.86,1.04-3.02.37-1.18.55-2.05.55-2.67,0-.76-.18-1.26-.54-1.53-.34-.25-.74-.39-1.18-.39-.59,0-1.11.16-1.53.46-.6.4-1.6,1.3-2.99,2.68-2.6,2.62-4.8,4.56-6.53,5.75-1.1.74-2.07,1.11-2.9,1.11-.36,0-.66-.11-.9-.35-.24-.24-.36-.57-.36-1.01.02-.77.35-1.68.98-2.7.64-1.03,1.53-1.96,2.65-2.78,1.11-.8,2.37-1.21,3.76-1.21.54,0,1.05.07,1.49.21,1.28.57,2.04.58,2.44.11.19-.21.28-.45.28-.7,0-.55-.49-.94-1.46-1.17-.87-.21-1.83-.32-2.86-.32-1.91.04-3.67.52-5.22,1.42-1.32.77-2.42,1.69-3.29,2.73-.03.02-.05.03-.07.05-1.43,1.58-2.97,2.94-4.58,4.05-1.59,1.1-3.06,1.65-4.39,1.65-.7,0-1.18-.13-1.42-.39-.25-.27-.37-.63-.37-1.1,0-.7.16-1.53.48-2.5.38-1.3.57-2.25.57-2.92,0-.71-.23-1.31-.68-1.77-.46-.47-1.28-.7-2.52-.7-2.03,0-4.64,1.14-7.77,3.39-2,1.43-4.15,3.2-6.39,5.25l3.3-7.75c.12-.29.18-.56.18-.8,0-.4-.12-.74-.37-1-.25-.26-.55-.4-.89-.4-.79,0-1.44.58-1.93,1.74l-1.81,4.17c-.15.35-.3.68-.43,1-.45-.05-1.12-.07-2.14-.07-2.59-.03-5.34-.05-8.4-.05.8-3.77,1.56-7.5,2.25-11.12.71-3.72,1.3-7.19,1.73-10.33.44-3.17.67-5.9.67-8.11,0-1.57-.14-2.82-.41-3.71-.28-.92-.68-1.58-1.18-1.97-.5-.39-1.11-.59-1.8-.59-3,0-7.21,2.88-12.88,8.79-6.47,6.75-13.48,15.92-20.81,27.26-3.55.05-8.76.14-15.5.27-7.66.13-11.7.22-12.38.27-.81.07-1.35.21-1.66.43-.33.24-.5.54-.5.92.02.26.12.45.3.59.29.22.74.27,1.07.03.12-.08.2-.19.25-.33.55-.06,3.09-.16,11.37-.34,5.24-.12,10.65-.24,16.09-.33-3.01,4.75-5.57,9.16-7.6,13.11-2.65,5.13-4,8.86-4,11.1,0,.47.06.89.19,1.26.08.17.26.36.67.36.21,0,.39-.06.56-.17.19-.13.29-.31.28-.56l-.03-.18c-.07-.24-.11-.52-.11-.83,0-1.99,1.37-5.59,4.07-10.71,2.16-4.08,4.82-8.59,7.91-13.42,7.54-.14,17.22-.25,28.81-.31l-.6,2.8c-1.34,6.16-2.48,11.72-3.41,16.55-.93,4.83-1.4,8.62-1.4,11.28s.68,3.93,2.03,3.97h0c.34,0,.68-.09,1.01-.27.36-.2.57-.52.61-.99,0-.45-.15-.77-.45-.95-.24-.15-.5-.23-.76-.25-.11-.4-.17-.95-.17-1.63,0-2.28.42-5.65,1.26-10,.84-4.38,1.88-9.48,3.1-15.15l1.13-5.38c2.87,0,5.75-.02,8.55-.05h.29c.6,0,1.08-.02,1.49-.06-.68,1.59-1.08,2.57-1.19,2.94-.11.39-.18.79-.21,1.21,0,.4.12.75.36,1.04.25.3.59.45,1,.45.25,0,.53-.03.84-.09.33-.06.56-.14.75-.27,2.22-2.2,4.58-4.31,7.01-6.29,3.6-2.95,6.24-4.45,7.84-4.45.78,0,1.14.32,1.14,1.03,0,.63-.17,1.42-.52,2.37-.43,1.41-.63,2.45-.63,3.18,0,.82.28,1.52.83,2.08.56.57,1.57.85,3.09.85,2.26,0,4.77-1.2,7.47-3.56-.03.22-.07.45-.07.67.05,1.2.45,2.08,1.21,2.59.73.5,1.61.76,2.62.76,1.3,0,2.59-.36,3.83-1.06,1.22-.69,2.41-1.56,3.53-2.59,1.12-1.02,2.18-2.06,3.16-3.08.67-.7,1.32-1.35,1.92-1.92.72-.58.95-.61.98-.61.07,0,.12,0,.12.16-.02.23-.09.5-.19.8-1.14,2.97-2.31,5.96-3.48,8.89l-2.05,5.17c-4.29,3.79-7.91,7.34-10.78,10.55-2.14,2.38-4.13,4.89-5.89,7.44-2.55,3.65-3.84,6.53-3.84,8.56,0,.95.17,1.73.5,2.3.34.58.78,1,1.31,1.25.52.24,1.04.36,1.55.36,1.69,0,3.36-.73,4.96-2.17,1.58-1.42,3.11-3.28,4.55-5.52,1.42-2.23,2.77-4.66,4.02-7.24,1.23-2.57,2.35-5.1,3.32-7.51.97-2.42,1.79-4.55,2.45-6.3l.83-2.12c3.5-3.04,7.44-6.36,11.69-9.88.09,1.19.68,2.22,1.78,3.06,1.19.9,2.89,1.35,5.05,1.35,2.31,0,4.35-.35,6.04-1.03,1.68-.68,3.2-1.56,4.5-2.61.44-.36.87-.73,1.29-1.1-.11.49-.19.94-.23,1.31,0,2.15,1.22,3.23,3.63,3.23s5.32-1.51,8.63-4.44c.03,1.29.63,2.39,1.81,3.28,1.19.9,2.89,1.35,5.05,1.35,2.31,0,4.35-.35,6.04-1.03,1.68-.68,3.2-1.56,4.5-2.61.91-.73,1.77-1.5,2.6-2.29.41.43.88.83,1.42,1.17.55.35,1.06.65,1.52.89l.1.06c-.31.15-.65.33-1,.53-.51.29-.96.64-1.35,1.02-.42.41-.64.86-.64,1.33,0,.93.77,1.39,2.28,1.39.92,0,1.99-.22,3.18-.65,1.25-.45,1.94-1.23,2.06-2.31,0-.5-.18-.96-.54-1.36,3.15-1.06,6.65-1.99,10.4-2.77.19-.03.39-.12.6-.29.23-.18.34-.4.34-.64,0-.14-.06-.47-.67-.47ZM529.09,184.74c.89-.52,1.79-.79,2.68-.79.25,0,.34.05.37.08.07.06.08.11.08.11-.03.29-.34.58-.91.85-.62.3-1.36.53-2.18.71-.66.14-1.21.22-1.65.25.4-.39.94-.79,1.62-1.2ZM498.37,184.74c.89-.52,1.79-.79,2.68-.79.25,0,.34.05.37.08.07.06.08.11.08.11-.03.29-.34.58-.91.85-.62.3-1.36.53-2.18.71-.66.14-1.21.22-1.65.25.4-.39.94-.79,1.62-1.2ZM425.84,188.04c-9.69,0-19.15.06-28.14.19,1.9-2.92,3.19-4.88,3.95-5.97,4.19-6.06,8.49-11.63,12.79-16.56,4.28-4.92,8.11-8.47,11.4-10.55,1.25-.8,2.25-1.2,2.96-1.2.62,0,1.06.31,1.32.94.29.68.43,1.89.43,3.6,0,2.16-.23,4.85-.68,8.01-.45,3.16-1.04,6.63-1.76,10.33-.71,3.67-1.48,7.44-2.28,11.22ZM474.2,207.98c-2.09,5.02-4.21,9.33-6.32,12.8-2.79,4.53-5.3,6.82-7.47,6.82-.47,0-.81-.16-1.02-.48-.23-.35-.34-.78-.34-1.27.08-1.45.67-3.12,1.74-4.96,1.08-1.86,2.33-3.68,3.71-5.41,1.39-1.74,2.59-3.16,3.59-4.24,2.23-2.51,4.94-5.24,8.06-8.12l-1.95,4.84ZM547.85,191.95c-.36.24-.8.43-1.3.56-.51.14-.96.21-1.36.21h-.2c-.22,0-.48-.03-.48-.18,0-.05.04-.24.56-.58.43-.28.9-.54,1.39-.77.45-.21.8-.37,1.05-.46.52.21.81.44.81.63,0,.23-.26.45-.48.59Z"/>
    <path class="cls-2" d="M631.12,157.89c-.03-.68-.36-.79-.55-.79-.29,0-.63.19-1.07.62-.41.39-.85,1.07-1.35,2.07-2.54,5.32-5.74,12.19-9.5,20.44-3.63,7.94-7.07,15.73-10.25,23.18-.54-3.48-1.88-6.79-3.99-9.83-2.25-3.25-4.97-6.3-8.07-9.07-3.09-2.76-6.18-5.33-9.17-7.64-1.94-1.52-3.7-2.95-5.24-4.26-1.54-1.31-2.79-2.54-3.72-3.67-.9-1.1-1.36-2.11-1.36-3,0-.81.95-1.61,2.84-2.39,1.96-.81,4.68-1.58,8.09-2.29,3.41-.71,7.4-1.38,11.86-1.99,4.43-.6,9.25-1.14,14.33-1.61,5.08-.47,10.28-.87,15.47-1.2,5.23-.33,10.38-.59,15.3-.76,4.94-.18,9.56-.27,13.72-.27,5.26,0,9.66.15,13.09.45,4.02.35,5.38.87,5.8,1.27.03.84.58.97.91.97.27,0,.52-.13.75-.37.22-.24.33-.6.33-1.05,0-1.34-1.85-2.17-5.66-2.56-3.63-.37-10.05-.56-19.09-.56-4.42,0-9.17.09-14.09.28-4.94.19-10.03.45-15.12.8-5.1.35-10.15.78-14.99,1.3-4.85.51-9.46,1.11-13.7,1.78-4.24.67-8.02,1.42-11.24,2.23-3.24.82-5.81,1.72-7.66,2.69-1.91,1-2.88,2.1-2.88,3.28s.55,2.48,1.62,3.82c1.05,1.32,2.47,2.73,4.2,4.2,1.71,1.46,3.65,3.03,5.75,4.69,1.85,1.45,3.76,2.99,5.68,4.58,1.92,1.59,3.78,3.27,5.54,5,1.75,1.72,3.34,3.55,4.74,5.43,1.39,1.87,2.51,3.84,3.33,5.86.82,2.01,1.23,4.13,1.23,6.3l-.02.9-.57,1.32c-.96,2.22-2,4.78-3.08,7.61-1.09,2.84-1.69,5.08-1.81,6.68,0,.92.47,1.4,1.38,1.4,1.06,0,2.05-1.42,3.01-4.34.87-2.61,1.63-5.82,2.25-9.49,6.72-16.54,14.13-33.09,22.03-49.2.6-1.3.89-2.22.89-2.81Z"/>
    <path class="cls-2" d="M748.41,184.55h-.85c-2.63,0-4.91-.14-6.78-.43,0-.58-.29-1.1-.85-1.54-.56-.44-1.47-.65-2.77-.65-1.82,0-3.45.39-4.84,1.16-1.39.77-2.5,1.74-3.29,2.89-.13.19-.23.38-.34.57-1.62,1.81-3.92,3.2-6.86,4.11-3.04.94-5.88,1.45-8.45,1.52-.52,0-1.08-.02-1.65-.06-.69-.07-.98-.16-1.11-.21.35-.23,1.49-.88,4.92-2.7,2.44-1.26,3.93-2.07,4.44-2.4.39-.23.69-.47.89-.72.22-.27.33-.62.33-1.04s-.2-.76-.58-.99c-.33-.2-.73-.34-1.18-.42-.44-.08-.83-.12-1.17-.12h-.49c-.95,0-2.1.04-3.4.13-1.31.09-2.5.32-3.55.7-1.11.4-1.79,1.06-2.03,2.04,0,.07.02.12.03.19-1.37,1.49-2.83,2.78-4.35,3.81-1.57,1.07-3.03,1.61-4.36,1.61-1.18,0-1.72-.69-1.72-2.18,0-.85.24-2.08.71-3.64.27-.82.41-1.4.41-1.77,0-.67-.4-.74-.57-.74-.53,0-.93.1-1.22.32-.27.2-.56.51-.88.91-.86,1.06-2.06,2.3-3.56,3.69-2.64,2.42-4.89,3.65-6.68,3.65-1.09,0-1.61-.49-1.62-1.53,0-.72.32-1.62.95-2.68.64-1.06,1.53-2.02,2.65-2.84,1.11-.81,2.38-1.22,3.8-1.22.54,0,1.05.07,1.49.21,1.28.57,2.04.58,2.44.11.19-.21.28-.45.28-.7,0-.55-.49-.94-1.46-1.17-.87-.21-1.83-.32-2.86-.32-1.91.04-3.67.52-5.22,1.42-.88.51-1.65,1.09-2.34,1.72-.13-.05-.3-.1-.54-.1-1.18,0-2.05-.5-2.68-1.54-.3-.47-.57-.97-.81-1.48-.33-.73-.72-1.38-1.14-1.92-.46-.57-1.11-.89-1.97-.93-1.09,0-2.21.63-3.34,1.86-1.1,1.2-2.18,2.65-3.21,4.32-1.02,1.64-1.97,3.27-2.83,4.83-.95,1.76-1.7,2.99-2.24,3.67.14-.52.41-1.38.93-2.77.7-1.88,1.44-3.77,2.18-5.61.76-1.87,1.24-3.02,1.46-3.48.09-.14.13-.28.13-.4,0-.19-.09-.44-.5-.59-.26-.1-.55-.15-.86-.15-.68,0-1.25.28-1.72.85-.39.61-.91,1.73-1.57,3.34-1.14-.02-1.99-.52-2.6-1.54-.3-.47-.57-.97-.81-1.48-.33-.73-.72-1.38-1.14-1.92-.46-.57-1.11-.89-1.97-.93-1.09,0-2.21.63-3.34,1.86-1.1,1.2-2.18,2.65-3.21,4.32-1.02,1.64-1.97,3.27-2.83,4.83-.95,1.76-1.7,2.99-2.24,3.67.14-.52.41-1.38.93-2.77.7-1.88,1.44-3.77,2.18-5.61.76-1.87,1.24-3.02,1.46-3.48.09-.14.13-.28.13-.4,0-.19-.09-.44-.5-.59-.26-.1-.55-.15-.86-.15-.68,0-1.25.28-1.72.85-.45.7-1.06,2.02-1.86,4.04-.08.19-.15.39-.22.58-.87.89-1.87,1.77-2.99,2.61-1.23.93-2.62,1.72-4.15,2.35-1.52.63-3.22.95-5.04.95-.63,0-1.29-.11-1.95-.32-.65-.21-1.19-.57-1.63-1.07-.43-.5-.65-1.19-.67-2.05,0-.1.03-.33.19-.8.11-.34.23-.62.37-.85,1.13.08,2.46-.04,3.86-.37,1.12-.27,2.1-.64,2.9-1.11.85-.5,1.29-1.1,1.29-1.79,0-.49-.25-.9-.76-1.21-.48-.3-1.22-.44-2.28-.44-1.62,0-3.1.34-4.38,1.01-1.28.67-2.3,1.51-3.04,2.51-.74,1-1.15,2.06-1.19,3.16,0,1.33.61,2.47,1.82,3.39,1.19.9,2.89,1.35,5.05,1.35,2.31,0,4.35-.35,6.04-1.03,1.68-.68,3.2-1.56,4.5-2.61.35-.28.68-.58,1.02-.87-.31.86-.62,1.72-.91,2.58-.68,2.03-1.01,3.24-1.01,3.69.03.54.25.93.67,1.16.39.22.99.32,1.84.32.72,0,1.54-.71,2.51-2.18.92-1.39,1.91-3.05,2.93-4.92.84-1.47,1.69-2.91,2.53-4.26.84-1.36,1.68-2.5,2.49-3.4.78-.86,1.5-1.29,2.16-1.29.24,0,.46.13.67.41.24.31.51.73.79,1.22.29.51.65,1.05,1.06,1.61.43.58.97,1.07,1.6,1.47.52.33,1.18.49,1.91.55-.73,1.86-1.42,3.74-2.05,5.62-.68,2.03-1.01,3.24-1.01,3.69.03.54.25.93.67,1.16.39.22.99.32,1.84.32.72,0,1.54-.71,2.51-2.18.92-1.39,1.91-3.05,2.93-4.92.84-1.47,1.69-2.91,2.52-4.26.84-1.36,1.68-2.5,2.49-3.4.78-.86,1.5-1.29,2.16-1.29.24,0,.46.13.67.41.24.31.51.73.79,1.22.29.51.65,1.05,1.06,1.61.43.58.97,1.07,1.6,1.47.55.34,1.25.51,2.02.56-.16.19-.33.38-.47.58-.94,1.29-1.42,2.53-1.42,3.69.02,2.14,1.51,3.23,4.41,3.23h.01c1.96-.11,3.93-.88,5.87-2.27,1.6-1.15,2.96-2.36,4.06-3.6-.16.71-.24,1.39-.24,2.05,0,2.32,1.33,3.49,3.95,3.49,2.28,0,4.79-1.2,7.46-3.57.72-.64,1.6-1.48,2.59-2.47.3-.06.56-.22.73-.54.32-.56,1.88-1.24,7.53-1.24h.43c.09,0,.17,0,.24,0-.84.51-2.11,1.17-3.78,1.95-4.99,2.38-5.85,3.14-6.06,3.5-.17.29-.26.61-.26.93,0,1.27,1.35,1.92,4.02,1.92,1.82,0,3.89-.24,6.15-.71,2.26-.47,4.41-1.18,6.4-2.12.91-.42,1.72-.91,2.46-1.44.05,1.12.54,2.1,1.48,2.92.99.85,2.58,1.28,4.75,1.28,1.77,0,3.22-.25,4.29-.76,1.08-.51,1.88-1.16,2.37-1.95.49-.79.74-1.63.74-2.49,0-.92-.24-1.8-.72-2.61,2.21.19,4.31.29,6.25.29h1.38c.47,0,.86-.09,1.16-.26.33-.19.5-.42.5-.67,0-.77-1.22-.77-1.62-.77ZM634.04,184.74c.89-.52,1.79-.79,2.68-.79.25,0,.34.05.37.08.07.06.08.11.08.11-.03.29-.34.58-.92.85-.62.3-1.36.53-2.18.71-.66.14-1.21.22-1.65.25.4-.39.94-.79,1.62-1.2ZM737.01,186.06c.65.9.98,1.9.98,2.96,0,.49-.11.97-.32,1.44-.21.45-.59.82-1.12,1.12-.55.3-1.32.47-2.28.51h-.19c-1.16,0-2-.26-2.49-.77-.5-.52-.74-1.14-.74-1.9,0-.81.27-1.68.81-2.6.54-.92,1.29-1.7,2.23-2.33.93-.62,2.01-.93,3.18-.93.88,0,.99.26,1,.39-.35.06-.66.19-.91.37-.33.23-.5.54-.53.93,0,.23.13.5.4.81Z"/>
  </g>
</svg>